name C:/MyDriveSym/Projects/mobilecap/Data\Session20210830_0002\mocap\ForceDataProcessed\walkingTS1_forces.mot
datacolumns 19
datarows 14
range 0.00000000 0.00650000
endheader 
time	R_ground_force_vx	R_ground_force_vy	R_ground_force_vz	R_ground_force_px	R_ground_force_py	R_ground_force_pz	R_ground_torque_x	R_ground_torque_y	R_ground_torque_z	L_ground_force_vx	L_ground_force_vy	L_ground_force_vz	L_ground_force_px	L_ground_force_py	L_ground_force_pz	L_ground_torque_x	L_ground_torque_y	L_ground_torque_z	
          0.00000000	          3.94026600	        225.60087400	         35.78833900	          0.12932500	          0.00600000	         -0.19215100	          0.00000000	          1.08027200	          0.00000000	          0.00000000	          0.00000000	          0.00000000	          0.72237200	          0.00000000	         -0.22759900	          0.00000000	          0.00000000	          0.00000000	
          0.00050000	          3.56159600	        226.89910500	         35.78309700	          0.12932500	          0.00600000	         -0.19215100	          0.00000000	          1.07169100	          0.00000000	          0.00000000	          0.00000000	          0.00000000	          0.72237200	          0.00000000	         -0.22759900	          0.00000000	          0.00000000	          0.00000000	
          0.00100000	          3.18052500	        228.20853200	         35.77658200	          0.12932500	          0.00600000	         -0.19215100	          0.00000000	          1.06302500	          0.00000000	          0.00000000	          0.00000000	          0.00000000	          0.72237200	          0.00000000	         -0.22759900	          0.00000000	          0.00000000	          0.00000000	
          0.00150000	          2.79707200	        229.52914800	         35.76877100	          0.12932500	          0.00600000	         -0.19215100	          0.00000000	          1.05427500	          0.00000000	          0.00000000	          0.00000000	          0.00000000	          0.72237200	          0.00000000	         -0.22759900	          0.00000000	          0.00000000	          0.00000000	
          0.00200000	          2.41125100	        230.86094300	         35.75964200	          0.12962500	          0.00600000	         -0.19209700	          0.00000000	          1.04544200	          0.00000000	          0.00000000	          0.00000000	          0.00000000	          0.72237200	          0.00000000	         -0.22759900	          0.00000000	          0.00000000	          0.00000000	
          0.00250000	          2.02308100	        232.20390800	         35.74917300	          0.12992500	          0.00600000	         -0.19204300	          0.00000000	          1.03652500	          0.00000000	          0.00000000	          0.00000000	          0.00000000	          0.72237200	          0.00000000	         -0.22759900	          0.00000000	          0.00000000	          0.00000000	
          0.00300000	          1.63258000	        233.55802900	         35.73734000	          0.13022600	          0.00600000	         -0.19198700	          0.00000000	          1.02752600	          0.00000000	          0.00000000	          0.00000000	          0.00000000	          0.72237200	          0.00000000	         -0.22759900	          0.00000000	          0.00000000	          0.00000000	
          0.00350000	          1.23976500	        234.92329300	         35.72412000	          0.13052700	          0.00600000	         -0.19193200	          0.00000000	          1.01844400	          0.00000000	          0.00000000	          0.00000000	          0.00000000	          0.72237200	          0.00000000	         -0.22759900	          0.00000000	          0.00000000	          0.00000000	
          0.00400000	          0.84465300	        236.29968400	         35.70948900	          0.13082900	          0.00600000	         -0.19187500	          0.00000000	          1.00927900	          0.00000000	          0.00000000	          0.00000000	          0.00000000	          0.72237200	          0.00000000	         -0.22759900	          0.00000000	          0.00000000	          0.00000000	
          0.00450000	          0.44726500	        237.68718200	         35.69342400	          0.13113100	          0.00600000	         -0.19181800	          0.00000000	          1.00003200	          0.00000000	          0.00000000	          0.00000000	          0.00000000	          0.72237200	          0.00000000	         -0.22759900	          0.00000000	          0.00000000	          0.00000000	
          0.00500000	          0.04761700	        239.08577000	         35.67590000	          0.13143400	          0.00600000	         -0.19176100	          0.00000000	          0.99070300	          0.00000000	          0.00000000	          0.00000000	          0.00000000	          0.72237200	          0.00000000	         -0.22759900	          0.00000000	          0.00000000	          0.00000000	
          0.00550000	         -0.35427100	        240.49542500	         35.65689200	          0.13173700	          0.00600000	         -0.19170300	          0.00000000	          0.98129300	          0.00000000	          0.00000000	          0.00000000	          0.00000000	          0.72237200	          0.00000000	         -0.22759900	          0.00000000	          0.00000000	          0.00000000	
          0.00600000	         -0.75838000	        241.91612400	         35.63637600	          0.13204100	          0.00600000	         -0.19164400	          0.00000000	          0.97180000	          0.00000000	          0.00000000	          0.00000000	          0.00000000	          0.72237200	          0.00000000	         -0.22759900	          0.00000000	          0.00000000	          0.00000000	
          0.00650000	         -1.16469100	        243.34784100	         35.61432600	          0.13234500	          0.00600000	         -0.19158500	          0.00000000	          0.96222600	          0.00000000	          0.00000000	          0.00000000	          0.00000000	          0.72237200	          0.00000000	         -0.22759900	          0.00000000	          0.00000000	          0.00000000	
